<svg width="19" height="19" fill="none" xmlns="http://www.w3.org/2000/svg"><path d="M14.057 10.908a.838.838 0 00-.243.739l.677 3.747a.822.822 0 01-.343.823.838.838 0 01-.891.06l-3.373-1.759a.86.86 0 00-.381-.1h-.206a.618.618 0 00-.206.069l-3.374 1.768a.893.893 0 01-.54.084.847.847 0 01-.679-.968l.678-3.748a.852.852 0 00-.243-.745l-2.75-2.666a.822.822 0 01-.205-.86.855.855 0 01.677-.572l3.785-.549a.847.847 0 00.67-.464l1.669-3.42a.793.793 0 01.152-.205l.068-.053a.512.512 0 01.123-.1l.083-.03.13-.053h.32c.287.03.539.2.67.457l1.69 3.404a.846.846 0 00.633.464l3.785.55c.32.045.587.266.693.57.1.306.014.64-.221.861l-2.848 2.696z" fill="#F6B76F"/></svg>